<mxfile host="65bd71144e">
    <diagram id="Az-NGgd50qMCWQy60_dX" name="Page-1">
        <mxGraphModel dx="1278" dy="362" grid="1" gridSize="10" guides="1" tooltips="1" connect="1" arrows="1" fold="1" page="1" pageScale="1" pageWidth="827" pageHeight="1169" math="0" shadow="0">
            <root>
                <mxCell id="0"/>
                <mxCell id="1" parent="0"/>
                <mxCell id="2" value="" style="rounded=0;whiteSpace=wrap;html=1;" vertex="1" parent="1">
                    <mxGeometry x="10" y="40" width="190" height="880" as="geometry"/>
                </mxCell>
                <mxCell id="3" value="" style="rounded=0;whiteSpace=wrap;html=1;" vertex="1" parent="1">
                    <mxGeometry x="-520" y="40" width="453" height="320" as="geometry"/>
                </mxCell>
                <mxCell id="4" style="edgeStyle=orthogonalEdgeStyle;rounded=0;orthogonalLoop=1;jettySize=auto;html=1;exitX=1;exitY=0.5;exitDx=0;exitDy=0;entryX=0;entryY=0.5;entryDx=0;entryDy=0;fontSize=16;" edge="1" parent="1" source="5" target="6">
                    <mxGeometry relative="1" as="geometry"/>
                </mxCell>
                <mxCell id="5" value="Api" style="text;html=1;strokeColor=#6c8ebf;fillColor=#dae8fc;align=center;verticalAlign=middle;whiteSpace=wrap;rounded=0;" vertex="1" parent="1">
                    <mxGeometry x="-520" y="40" width="453" height="30" as="geometry"/>
                </mxCell>
                <mxCell id="6" value="FHIREST core" style="text;html=1;strokeColor=#6c8ebf;fillColor=#dae8fc;align=center;verticalAlign=middle;whiteSpace=wrap;rounded=0;" vertex="1" parent="1">
                    <mxGeometry x="10" y="40" width="190" height="30" as="geometry"/>
                </mxCell>
                <mxCell id="7" value="" style="rounded=0;whiteSpace=wrap;html=1;direction=south;dashed=1;" vertex="1" parent="1">
                    <mxGeometry x="-310" y="80" width="210" height="220" as="geometry"/>
                </mxCell>
                <mxCell id="8" value="" style="rounded=0;whiteSpace=wrap;html=1;dashed=1;" vertex="1" parent="1">
                    <mxGeometry x="-300" y="90" width="210" height="220" as="geometry"/>
                </mxCell>
                <mxCell id="9" value="" style="rounded=0;whiteSpace=wrap;html=1;" vertex="1" parent="1">
                    <mxGeometry x="-290" y="100" width="210" height="220" as="geometry"/>
                </mxCell>
                <mxCell id="10" value="Default: REST" style="text;html=1;strokeColor=#666666;fillColor=#f5f5f5;align=center;verticalAlign=middle;whiteSpace=wrap;rounded=0;fontColor=#333333;" vertex="1" parent="1">
                    <mxGeometry x="-290" y="100" width="210" height="30" as="geometry"/>
                </mxCell>
                <mxCell id="11" style="edgeStyle=orthogonalEdgeStyle;rounded=0;orthogonalLoop=1;jettySize=auto;html=1;exitX=0;exitY=0.5;exitDx=0;exitDy=0;exitPerimeter=0;entryX=1;entryY=0.5;entryDx=0;entryDy=0;fontSize=16;" edge="1" parent="1" source="13" target="21">
                    <mxGeometry relative="1" as="geometry">
                        <Array as="points">
                            <mxPoint x="-340" y="225"/>
                            <mxPoint x="-340" y="188"/>
                        </Array>
                    </mxGeometry>
                </mxCell>
                <mxCell id="12" style="edgeStyle=orthogonalEdgeStyle;rounded=0;orthogonalLoop=1;jettySize=auto;html=1;exitX=0;exitY=0.5;exitDx=0;exitDy=0;exitPerimeter=0;entryX=0.996;entryY=0.458;entryDx=0;entryDy=0;entryPerimeter=0;fontSize=16;" edge="1" parent="1" source="13" target="27">
                    <mxGeometry relative="1" as="geometry">
                        <Array as="points">
                            <mxPoint x="-340" y="225"/>
                            <mxPoint x="-340" y="263"/>
                        </Array>
                    </mxGeometry>
                </mxCell>
                <mxCell id="13" value="" style="shape=providedRequiredInterface;html=1;verticalLabelPosition=bottom;sketch=0;fontSize=16;rotation=-180;direction=west;" vertex="1" parent="1">
                    <mxGeometry x="-300" y="215" width="20" height="20" as="geometry"/>
                </mxCell>
                <mxCell id="14" value="Request/Response filters" style="text;html=1;strokeColor=none;fillColor=none;align=center;verticalAlign=middle;whiteSpace=wrap;rounded=0;fontSize=16;" vertex="1" parent="1">
                    <mxGeometry x="-285" y="210" width="195" height="30" as="geometry"/>
                </mxCell>
                <mxCell id="15" value="Endpoint definitions" style="text;html=1;strokeColor=none;fillColor=none;align=center;verticalAlign=middle;whiteSpace=wrap;rounded=0;fontSize=16;" vertex="1" parent="1">
                    <mxGeometry x="-235" y="130" width="155" height="40" as="geometry"/>
                </mxCell>
                <mxCell id="16" style="edgeStyle=orthogonalEdgeStyle;rounded=0;orthogonalLoop=1;jettySize=auto;html=1;exitX=0;exitY=0.5;exitDx=0;exitDy=0;exitPerimeter=0;entryX=1;entryY=0.5;entryDx=0;entryDy=0;fontSize=16;" edge="1" parent="1" source="17" target="19">
                    <mxGeometry relative="1" as="geometry">
                        <Array as="points">
                            <mxPoint x="-320" y="190"/>
                            <mxPoint x="-320" y="123"/>
                        </Array>
                    </mxGeometry>
                </mxCell>
                <mxCell id="17" value="" style="shape=providedRequiredInterface;html=1;verticalLabelPosition=bottom;sketch=0;fontSize=16;rotation=-180;direction=west;" vertex="1" parent="1">
                    <mxGeometry x="-300" y="180" width="20" height="20" as="geometry"/>
                </mxCell>
                <mxCell id="18" value="Resource overwrite" style="text;html=1;strokeColor=none;fillColor=none;align=center;verticalAlign=middle;whiteSpace=wrap;rounded=0;fontSize=16;" vertex="1" parent="1">
                    <mxGeometry x="-283" y="175" width="150" height="30" as="geometry"/>
                </mxCell>
                <mxCell id="19" value="" style="rounded=1;whiteSpace=wrap;html=1;fontSize=16;" vertex="1" parent="1">
                    <mxGeometry x="-500" y="102.5" width="130" height="40" as="geometry"/>
                </mxCell>
                <mxCell id="20" value="Binary" style="text;html=1;strokeColor=none;fillColor=none;align=center;verticalAlign=middle;whiteSpace=wrap;rounded=0;dashed=1;fontSize=16;" vertex="1" parent="1">
                    <mxGeometry x="-465" y="107.5" width="60" height="30" as="geometry"/>
                </mxCell>
                <mxCell id="21" value="" style="rounded=1;whiteSpace=wrap;html=1;fontSize=16;shadow=0;sketch=0;glass=0;gradientColor=none;" vertex="1" parent="1">
                    <mxGeometry x="-500" y="157.5" width="130" height="60" as="geometry"/>
                </mxCell>
                <mxCell id="22" value="Authentication" style="text;html=1;strokeColor=none;fillColor=none;align=center;verticalAlign=middle;whiteSpace=wrap;rounded=0;shadow=0;glass=0;dashed=1;sketch=0;fontSize=16;" vertex="1" parent="1">
                    <mxGeometry x="-465" y="172.5" width="60" height="30" as="geometry"/>
                </mxCell>
                <mxCell id="23" style="edgeStyle=orthogonalEdgeStyle;rounded=0;orthogonalLoop=1;jettySize=auto;html=1;exitX=0;exitY=0.5;exitDx=0;exitDy=0;exitPerimeter=0;entryX=1;entryY=0.5;entryDx=0;entryDy=0;fontSize=16;" edge="1" parent="1" source="24" target="25">
                    <mxGeometry relative="1" as="geometry"/>
                </mxCell>
                <mxCell id="24" value="" style="shape=providedRequiredInterface;html=1;verticalLabelPosition=bottom;sketch=0;fontSize=16;rotation=-180;direction=west;" vertex="1" parent="1">
                    <mxGeometry x="-510" y="177.5" width="20" height="20" as="geometry"/>
                </mxCell>
                <mxCell id="25" value="" style="rounded=1;whiteSpace=wrap;html=1;fontSize=16;" vertex="1" parent="1">
                    <mxGeometry x="-670" y="157.5" width="120" height="60" as="geometry"/>
                </mxCell>
                <mxCell id="26" value="OpeiID" style="text;html=1;strokeColor=none;fillColor=none;align=center;verticalAlign=middle;whiteSpace=wrap;rounded=0;shadow=0;glass=0;dashed=1;sketch=0;fontSize=16;" vertex="1" parent="1">
                    <mxGeometry x="-640" y="172.5" width="60" height="30" as="geometry"/>
                </mxCell>
                <mxCell id="27" value="" style="rounded=1;whiteSpace=wrap;html=1;fontSize=16;shadow=0;sketch=0;glass=0;gradientColor=none;" vertex="1" parent="1">
                    <mxGeometry x="-670" y="235" width="120" height="60" as="geometry"/>
                </mxCell>
                <mxCell id="28" value="Smart on Fhir" style="text;html=1;strokeColor=none;fillColor=none;align=center;verticalAlign=middle;whiteSpace=wrap;rounded=0;shadow=0;glass=0;dashed=1;sketch=0;fontSize=16;" vertex="1" parent="1">
                    <mxGeometry x="-670" y="250" width="120" height="30" as="geometry"/>
                </mxCell>
                <mxCell id="29" value="Resource search" style="text;html=1;strokeColor=none;fillColor=none;align=center;verticalAlign=middle;whiteSpace=wrap;rounded=0;shadow=0;glass=0;dashed=1;sketch=0;fontSize=16;" vertex="1" parent="1">
                    <mxGeometry x="35" y="680" width="140" height="30" as="geometry"/>
                </mxCell>
                <mxCell id="30" value="Operations" style="text;html=1;strokeColor=none;fillColor=none;align=center;verticalAlign=middle;whiteSpace=wrap;rounded=0;shadow=0;glass=0;dashed=1;sketch=0;fontSize=16;" vertex="1" parent="1">
                    <mxGeometry x="60" y="550" width="95" height="30" as="geometry"/>
                </mxCell>
                <mxCell id="31" value="" style="rounded=1;whiteSpace=wrap;html=1;shadow=0;glass=0;dashed=1;sketch=0;fontSize=16;gradientColor=none;" vertex="1" parent="1">
                    <mxGeometry x="20" y="397.5" width="170" height="60" as="geometry"/>
                </mxCell>
                <mxCell id="32" value="Resource save" style="text;html=1;strokeColor=none;fillColor=none;align=center;verticalAlign=middle;whiteSpace=wrap;rounded=0;shadow=0;glass=0;dashed=1;sketch=0;fontSize=16;" vertex="1" parent="1">
                    <mxGeometry x="10" y="397.5" width="140" height="30" as="geometry"/>
                </mxCell>
                <mxCell id="33" value="Save interceptors" style="text;html=1;strokeColor=none;fillColor=none;align=center;verticalAlign=middle;whiteSpace=wrap;rounded=0;shadow=0;glass=0;dashed=1;sketch=0;fontSize=16;" vertex="1" parent="1">
                    <mxGeometry x="60" y="422.5" width="130" height="30" as="geometry"/>
                </mxCell>
                <mxCell id="34" value="Conformance" style="text;html=1;strokeColor=none;fillColor=none;align=center;verticalAlign=middle;whiteSpace=wrap;rounded=0;shadow=0;glass=0;dashed=1;sketch=0;fontSize=16;" vertex="1" parent="1">
                    <mxGeometry x="52.5" y="270" width="110" height="30" as="geometry"/>
                </mxCell>
                <mxCell id="35" style="edgeStyle=orthogonalEdgeStyle;rounded=0;orthogonalLoop=1;jettySize=auto;html=1;exitX=0;exitY=0.5;exitDx=0;exitDy=0;exitPerimeter=0;entryX=1;entryY=0.5;entryDx=0;entryDy=0;fontSize=16;dashed=1;" edge="1" parent="1" source="36" target="15">
                    <mxGeometry relative="1" as="geometry">
                        <Array as="points">
                            <mxPoint x="-40" y="285"/>
                            <mxPoint x="-40" y="150"/>
                        </Array>
                    </mxGeometry>
                </mxCell>
                <mxCell id="36" value="" style="shape=requiredInterface;html=1;verticalLabelPosition=bottom;sketch=0;rounded=1;shadow=0;glass=0;fontSize=16;gradientColor=none;direction=east;rotation=0;" vertex="1" parent="1">
                    <mxGeometry x="10" y="275" width="10" height="20" as="geometry"/>
                </mxCell>
                <mxCell id="37" value="" style="shape=providedRequiredInterface;html=1;verticalLabelPosition=bottom;sketch=0;fontSize=16;rotation=-180;" vertex="1" parent="1">
                    <mxGeometry x="190" y="555" width="20" height="20" as="geometry"/>
                </mxCell>
                <mxCell id="38" style="edgeStyle=orthogonalEdgeStyle;rounded=0;orthogonalLoop=1;jettySize=auto;html=1;exitX=0;exitY=0.5;exitDx=0;exitDy=0;exitPerimeter=0;entryX=1;entryY=0.5;entryDx=0;entryDy=0;fontSize=16;" edge="1" parent="1" source="39" target="44">
                    <mxGeometry relative="1" as="geometry"/>
                </mxCell>
                <mxCell id="39" value="" style="shape=providedRequiredInterface;html=1;verticalLabelPosition=bottom;sketch=0;fontSize=16;rotation=-180;direction=west;" vertex="1" parent="1">
                    <mxGeometry y="685" width="20" height="20" as="geometry"/>
                </mxCell>
                <mxCell id="40" value="" style="rounded=0;whiteSpace=wrap;html=1;shadow=0;glass=0;sketch=0;fontSize=16;gradientColor=none;" vertex="1" parent="1">
                    <mxGeometry x="-348" y="397.5" width="280" height="240" as="geometry"/>
                </mxCell>
                <mxCell id="41" value="" style="rounded=0;whiteSpace=wrap;html=1;shadow=0;glass=0;sketch=0;fontSize=16;fillColor=#dae8fc;strokeColor=#6c8ebf;" vertex="1" parent="1">
                    <mxGeometry x="-348" y="397.5" width="280" height="30" as="geometry"/>
                </mxCell>
                <mxCell id="42" value="Storage" style="text;html=1;strokeColor=none;fillColor=none;align=center;verticalAlign=middle;whiteSpace=wrap;rounded=0;shadow=0;glass=0;sketch=0;fontSize=16;" vertex="1" parent="1">
                    <mxGeometry x="-237" y="397.5" width="60" height="30" as="geometry"/>
                </mxCell>
                <mxCell id="43" value="" style="rounded=0;whiteSpace=wrap;html=1;shadow=0;glass=0;sketch=0;fontSize=16;gradientColor=none;" vertex="1" parent="1">
                    <mxGeometry x="-347" y="680" width="280" height="240" as="geometry"/>
                </mxCell>
                <mxCell id="44" value="" style="rounded=0;whiteSpace=wrap;html=1;shadow=0;glass=0;sketch=0;fontSize=16;fillColor=#dae8fc;strokeColor=#6c8ebf;" vertex="1" parent="1">
                    <mxGeometry x="-347" y="680" width="280" height="30" as="geometry"/>
                </mxCell>
                <mxCell id="45" value="Search" style="text;html=1;strokeColor=none;fillColor=none;align=center;verticalAlign=middle;whiteSpace=wrap;rounded=0;shadow=0;glass=0;sketch=0;fontSize=16;" vertex="1" parent="1">
                    <mxGeometry x="-237" y="680" width="60" height="30" as="geometry"/>
                </mxCell>
                <mxCell id="46" style="edgeStyle=orthogonalEdgeStyle;rounded=0;orthogonalLoop=1;jettySize=auto;html=1;exitX=0;exitY=0.5;exitDx=0;exitDy=0;exitPerimeter=0;entryX=1;entryY=0.5;entryDx=0;entryDy=0;fontSize=16;" edge="1" parent="1" source="47" target="41">
                    <mxGeometry relative="1" as="geometry"/>
                </mxCell>
                <mxCell id="47" value="" style="shape=providedRequiredInterface;html=1;verticalLabelPosition=bottom;sketch=0;fontSize=16;rotation=-180;direction=west;" vertex="1" parent="1">
                    <mxGeometry y="402.5" width="20" height="20" as="geometry"/>
                </mxCell>
                <mxCell id="48" value="" style="rounded=0;whiteSpace=wrap;html=1;direction=south;dashed=1;" vertex="1" parent="1">
                    <mxGeometry x="-337" y="437.5" width="210" height="150" as="geometry"/>
                </mxCell>
                <mxCell id="49" value="" style="rounded=0;whiteSpace=wrap;html=1;dashed=1;" vertex="1" parent="1">
                    <mxGeometry x="-327" y="447.5" width="210" height="150" as="geometry"/>
                </mxCell>
                <mxCell id="50" value="" style="rounded=0;whiteSpace=wrap;html=1;" vertex="1" parent="1">
                    <mxGeometry x="-317" y="457.5" width="210" height="150" as="geometry"/>
                </mxCell>
                <mxCell id="51" value="Default: Postgres" style="text;html=1;strokeColor=#666666;fillColor=#f5f5f5;align=center;verticalAlign=middle;whiteSpace=wrap;rounded=0;fontColor=#333333;" vertex="1" parent="1">
                    <mxGeometry x="-317" y="457.5" width="210" height="30" as="geometry"/>
                </mxCell>
                <mxCell id="52" value="Resource definitions" style="text;html=1;strokeColor=none;fillColor=none;align=center;verticalAlign=middle;whiteSpace=wrap;rounded=0;fontSize=16;" vertex="1" parent="1">
                    <mxGeometry x="-257" y="487.5" width="150" height="30" as="geometry"/>
                </mxCell>
                <mxCell id="53" value="" style="rounded=0;whiteSpace=wrap;html=1;" vertex="1" parent="1">
                    <mxGeometry x="-336" y="720" width="210" height="150" as="geometry"/>
                </mxCell>
                <mxCell id="54" value="Default: Postgres" style="text;html=1;strokeColor=#666666;fillColor=#f5f5f5;align=center;verticalAlign=middle;whiteSpace=wrap;rounded=0;fontColor=#333333;" vertex="1" parent="1">
                    <mxGeometry x="-336" y="720" width="210" height="30" as="geometry"/>
                </mxCell>
                <mxCell id="55" value="Resource definitions" style="text;html=1;strokeColor=none;fillColor=none;align=center;verticalAlign=middle;whiteSpace=wrap;rounded=0;fontSize=16;" vertex="1" parent="1">
                    <mxGeometry x="-276" y="754" width="150" height="30" as="geometry"/>
                </mxCell>
                <mxCell id="56" value="DB Transaction" style="text;html=1;strokeColor=none;fillColor=none;align=center;verticalAlign=middle;whiteSpace=wrap;rounded=0;shadow=0;glass=0;dashed=1;sketch=0;fontSize=16;" vertex="1" parent="1">
                    <mxGeometry x="20" y="372.5" width="120" height="30" as="geometry"/>
                </mxCell>
                <mxCell id="57" value="" style="shape=providedRequiredInterface;html=1;verticalLabelPosition=bottom;sketch=0;fontSize=16;rotation=-180;" vertex="1" parent="1">
                    <mxGeometry x="190" y="430" width="20" height="20" as="geometry"/>
                </mxCell>
                <mxCell id="58" style="edgeStyle=orthogonalEdgeStyle;rounded=0;orthogonalLoop=1;jettySize=auto;html=1;exitX=0;exitY=0.5;exitDx=0;exitDy=0;entryX=0;entryY=0.5;entryDx=0;entryDy=0;entryPerimeter=0;fontSize=16;" edge="1" parent="1" source="59" target="60">
                    <mxGeometry relative="1" as="geometry"/>
                </mxCell>
                <mxCell id="59" value="Conformance initializer" style="rounded=1;whiteSpace=wrap;html=1;shadow=0;glass=0;sketch=0;fontSize=16;gradientColor=none;" vertex="1" parent="1">
                    <mxGeometry x="320" y="255" width="120" height="60" as="geometry"/>
                </mxCell>
                <mxCell id="60" value="" style="shape=providedRequiredInterface;html=1;verticalLabelPosition=bottom;sketch=0;fontSize=16;rotation=-180;direction=east;" vertex="1" parent="1">
                    <mxGeometry x="190" y="275" width="20" height="20" as="geometry"/>
                </mxCell>
                <mxCell id="61" style="edgeStyle=orthogonalEdgeStyle;rounded=0;orthogonalLoop=1;jettySize=auto;html=1;exitX=0;exitY=0.5;exitDx=0;exitDy=0;entryX=0;entryY=0.5;entryDx=0;entryDy=0;entryPerimeter=0;fontSize=16;" edge="1" parent="1" source="63" target="57">
                    <mxGeometry relative="1" as="geometry"/>
                </mxCell>
                <mxCell id="62" style="edgeStyle=orthogonalEdgeStyle;rounded=0;orthogonalLoop=1;jettySize=auto;html=1;exitX=0;exitY=0.5;exitDx=0;exitDy=0;entryX=0;entryY=0.5;entryDx=0;entryDy=0;entryPerimeter=0;fontSize=16;" edge="1" parent="1" source="63" target="37">
                    <mxGeometry relative="1" as="geometry"/>
                </mxCell>
                <mxCell id="63" value="Profile validator" style="rounded=1;whiteSpace=wrap;html=1;shadow=0;glass=0;sketch=0;fontSize=16;gradientColor=none;" vertex="1" parent="1">
                    <mxGeometry x="320" y="410.5" width="120" height="60" as="geometry"/>
                </mxCell>
                <mxCell id="64" style="edgeStyle=orthogonalEdgeStyle;rounded=0;orthogonalLoop=1;jettySize=auto;html=1;exitX=0;exitY=0.5;exitDx=0;exitDy=0;exitPerimeter=0;entryX=1;entryY=0.5;entryDx=0;entryDy=0;fontSize=16;dashed=1;" edge="1" parent="1" source="36" target="52">
                    <mxGeometry relative="1" as="geometry">
                        <Array as="points">
                            <mxPoint x="-40" y="285"/>
                            <mxPoint x="-40" y="503"/>
                        </Array>
                    </mxGeometry>
                </mxCell>
                <mxCell id="65" style="edgeStyle=orthogonalEdgeStyle;rounded=0;orthogonalLoop=1;jettySize=auto;html=1;exitX=0;exitY=0.5;exitDx=0;exitDy=0;exitPerimeter=0;entryX=1;entryY=0.5;entryDx=0;entryDy=0;fontSize=16;dashed=1;" edge="1" parent="1" source="36" target="55">
                    <mxGeometry relative="1" as="geometry">
                        <Array as="points">
                            <mxPoint x="-40" y="285"/>
                            <mxPoint x="-40" y="769"/>
                        </Array>
                    </mxGeometry>
                </mxCell>
                <mxCell id="66" style="edgeStyle=orthogonalEdgeStyle;rounded=0;orthogonalLoop=1;jettySize=auto;html=1;exitX=0;exitY=0.5;exitDx=0;exitDy=0;entryX=0;entryY=0.5;entryDx=0;entryDy=0;entryPerimeter=0;fontSize=16;" edge="1" parent="1" source="68" target="57">
                    <mxGeometry relative="1" as="geometry"/>
                </mxCell>
                <mxCell id="67" style="edgeStyle=orthogonalEdgeStyle;rounded=0;orthogonalLoop=1;jettySize=auto;html=1;exitX=0;exitY=0.5;exitDx=0;exitDy=0;entryX=0;entryY=0.5;entryDx=0;entryDy=0;entryPerimeter=0;fontSize=16;" edge="1" parent="1" source="68" target="37">
                    <mxGeometry relative="1" as="geometry"/>
                </mxCell>
                <mxCell id="68" value="Other features" style="rounded=1;whiteSpace=wrap;html=1;shadow=0;glass=0;sketch=0;fontSize=16;gradientColor=none;" vertex="1" parent="1">
                    <mxGeometry x="320" y="483" width="120" height="60" as="geometry"/>
                </mxCell>
                <mxCell id="69" value="" style="rounded=0;whiteSpace=wrap;html=1;shadow=0;glass=0;sketch=0;fontSize=16;gradientColor=none;" vertex="1" parent="1">
                    <mxGeometry x="280" y="40" width="280" height="120" as="geometry"/>
                </mxCell>
                <mxCell id="70" style="edgeStyle=orthogonalEdgeStyle;rounded=0;orthogonalLoop=1;jettySize=auto;html=1;exitX=0;exitY=0.5;exitDx=0;exitDy=0;entryX=1;entryY=0.5;entryDx=0;entryDy=0;fontSize=16;" edge="1" parent="1" source="71" target="6">
                    <mxGeometry relative="1" as="geometry"/>
                </mxCell>
                <mxCell id="71" value="Fhir structures" style="rounded=0;whiteSpace=wrap;html=1;shadow=0;glass=0;sketch=0;fontSize=16;fillColor=#dae8fc;strokeColor=#6c8ebf;" vertex="1" parent="1">
                    <mxGeometry x="280" y="40" width="280" height="30" as="geometry"/>
                </mxCell>
                <mxCell id="72" value="Json" style="text;html=1;strokeColor=none;fillColor=none;align=center;verticalAlign=middle;whiteSpace=wrap;rounded=0;shadow=0;glass=0;sketch=0;fontSize=16;" vertex="1" parent="1">
                    <mxGeometry x="290" y="80" width="60" height="30" as="geometry"/>
                </mxCell>
                <mxCell id="73" value="Xml" style="text;html=1;strokeColor=none;fillColor=none;align=center;verticalAlign=middle;whiteSpace=wrap;rounded=0;shadow=0;glass=0;sketch=0;fontSize=16;" vertex="1" parent="1">
                    <mxGeometry x="290" y="112.5" width="60" height="30" as="geometry"/>
                </mxCell>
            </root>
        </mxGraphModel>
    </diagram>
</mxfile>